<svg xmlns="http://www.w3.org/2000/svg" xmlns:xlink="http://www.w3.org/1999/xlink" contentStyleType="text/css" data-diagram-type="DESCRIPTION" height="1050px" preserveAspectRatio="none" style="width:1008px;height:1050px;background:#FFFFFF;" version="1.1" viewBox="0 0 1008 1050" width="1008px" zoomAndPan="magnify"><defs/><g><!--cluster Sistema de gestion de citas medicas--><g class="cluster" data-entity="Sistema de gestion de citas medicas" data-source-line="9" data-uid="ent0007" id="cluster_Sistema de gestion de citas medicas"><rect fill="none" height="1037" rx="2.5" ry="2.5" style="stroke:#181818;stroke-width:1;" width="823.21" x="178.95" y="7"/><text fill="#000000" font-family="sans-serif" font-size="14" font-weight="bold" lengthAdjust="spacing" textLength="288.3193" x="446.3953" y="21.9951">Sistema de gestion de citas medicas</text></g><!--cluster Gestion de usuarios--><g class="cluster" data-entity="Gestion de usuarios" data-source-line="11" data-uid="ent0008" id="cluster_Gestion de usuarios"><path d="M216.59,860 L374.6183,860 A3.75,3.75 0 0 1 377.1183,862.5 L384.1183,882.2969 L964.73,882.2969 A2.5,2.5 0 0 1 967.23,884.7969 L967.23,1017.5 A2.5,2.5 0 0 1 964.73,1020 L216.59,1020 A2.5,2.5 0 0 1 214.09,1017.5 L214.09,862.5 A2.5,2.5 0 0 1 216.59,860" fill="none" style="stroke:#000000;stroke-width:1.5;"/><line style="stroke:#000000;stroke-width:1.5;" x1="214.09" x2="384.1183" y1="882.2969" y2="882.2969"/><text fill="#000000" font-family="sans-serif" font-size="14" font-weight="bold" lengthAdjust="spacing" textLength="157.0283" x="218.09" y="874.9951">Gestion de usuarios</text></g><!--cluster Gestion de consultorios--><g class="cluster" data-entity="Gestion de consultorios" data-source-line="19" data-uid="ent0014" id="cluster_Gestion de consultorios"><path d="M205.45,672 L393.0574,672 A3.75,3.75 0 0 1 395.5574,674.5 L402.5574,694.2969 L975.66,694.2969 A2.5,2.5 0 0 1 978.16,696.7969 L978.16,833.5 A2.5,2.5 0 0 1 975.66,836 L205.45,836 A2.5,2.5 0 0 1 202.95,833.5 L202.95,674.5 A2.5,2.5 0 0 1 205.45,672" fill="none" style="stroke:#000000;stroke-width:1.5;"/><line style="stroke:#000000;stroke-width:1.5;" x1="202.95" x2="402.5574" y1="694.2969" y2="694.2969"/><text fill="#000000" font-family="sans-serif" font-size="14" font-weight="bold" lengthAdjust="spacing" textLength="186.6074" x="206.95" y="686.9951">Gestion de consultorios</text></g><!--cluster Gestion de Pacientes--><g class="cluster" data-entity="Gestion de Pacientes" data-source-line="27" data-uid="ent0020" id="cluster_Gestion de Pacientes"><path d="M212.81,50 L380.2582,50 A3.75,3.75 0 0 1 382.7582,52.5 L389.7582,72.2969 L672.85,72.2969 A2.5,2.5 0 0 1 675.35,74.7969 L675.35,207.5 A2.5,2.5 0 0 1 672.85,210 L212.81,210 A2.5,2.5 0 0 1 210.31,207.5 L210.31,52.5 A2.5,2.5 0 0 1 212.81,50" fill="none" style="stroke:#000000;stroke-width:1.5;"/><line style="stroke:#000000;stroke-width:1.5;" x1="210.31" x2="389.7582" y1="72.2969" y2="72.2969"/><text fill="#000000" font-family="sans-serif" font-size="14" font-weight="bold" lengthAdjust="spacing" textLength="166.4482" x="214.31" y="64.9951">Gestion de Pacientes</text></g><!--cluster GesCitas--><g class="cluster" data-entity="GesCitas" data-source-line="33" data-uid="ent0024" id="cluster_GesCitas"><path d="M227.33,234 L355.5605,234 A3.75,3.75 0 0 1 358.0605,236.5 L365.0605,256.2969 L965.69,256.2969 A2.5,2.5 0 0 1 968.19,258.7969 L968.19,391.5 A2.5,2.5 0 0 1 965.69,394 L227.33,394 A2.5,2.5 0 0 1 224.83,391.5 L224.83,236.5 A2.5,2.5 0 0 1 227.33,234" fill="none" style="stroke:#000000;stroke-width:1.5;"/><line style="stroke:#000000;stroke-width:1.5;" x1="224.83" x2="365.0605" y1="256.2969" y2="256.2969"/><text fill="#000000" font-family="sans-serif" font-size="14" font-weight="bold" lengthAdjust="spacing" textLength="127.2305" x="228.83" y="248.9951">Gestion de citas</text></g><!--cluster Ingreso/salida del sistema--><g class="cluster" data-entity="Ingreso.salida del sistema" data-source-line="41" data-uid="ent0030" id="cluster_Ingreso.salida del sistema"><path d="M232.21,418 L440.4688,418 A3.75,3.75 0 0 1 442.9688,420.5 L449.9688,440.2969 L674.41,440.2969 A2.5,2.5 0 0 1 676.91,442.7969 L676.91,518.5 A2.5,2.5 0 0 1 674.41,521 L232.21,521 A2.5,2.5 0 0 1 229.71,518.5 L229.71,420.5 A2.5,2.5 0 0 1 232.21,418" fill="none" style="stroke:#000000;stroke-width:1.5;"/><line style="stroke:#000000;stroke-width:1.5;" x1="229.71" x2="449.9688" y1="440.2969" y2="440.2969"/><text fill="#000000" font-family="sans-serif" font-size="14" font-weight="bold" lengthAdjust="spacing" textLength="207.2588" x="233.71" y="432.9951">Ingreso/salida del sistema</text></g><!--cluster Atenci?n de citas--><g class="cluster" data-entity="Atenci.n de citas" data-source-line="46" data-uid="ent0033" id="cluster_Atenci.n de citas"><path d="M234.38,545 L371.8868,545 A3.75,3.75 0 0 1 374.3868,547.5 L381.3868,567.2969 L669.86,567.2969 A2.5,2.5 0 0 1 672.36,569.7969 L672.36,645.5 A2.5,2.5 0 0 1 669.86,648 L234.38,648 A2.5,2.5 0 0 1 231.88,645.5 L231.88,547.5 A2.5,2.5 0 0 1 234.38,545" fill="none" style="stroke:#000000;stroke-width:1.5;"/><line style="stroke:#000000;stroke-width:1.5;" x1="231.88" x2="381.3868" y1="567.2969" y2="567.2969"/><text fill="#000000" font-family="sans-serif" font-size="14" font-weight="bold" lengthAdjust="spacing" textLength="136.5068" x="235.88" y="559.9951">Atenci&#243;n de citas</text></g><!--entity UC_ConUsrs--><g class="entity" data-entity="UC_ConUsrs" data-source-line="12" data-uid="ent0009" id="entity_UC_ConUsrs"><ellipse cx="310.0769" cy="912.9994" fill="#F1F1F1" rx="79.9969" ry="18.3994" style="stroke:#181818;stroke-width:0.5;"/><text fill="#000000" font-family="sans-serif" font-size="14" lengthAdjust="spacing" textLength="130.6689" x="244.7424" y="917.6478">Consultar usuarios</text></g><!--entity UC_RegUsr--><g class="entity" data-entity="UC_RegUsr" data-source-line="13" data-uid="ent0010" id="entity_UC_RegUsr"><ellipse cx="310.0777" cy="983.9975" fill="#F1F1F1" rx="75.6377" ry="17.5275" style="stroke:#181818;stroke-width:0.5;"/><text fill="#000000" font-family="sans-serif" font-size="14" lengthAdjust="spacing" textLength="120.2715" x="249.9419" y="988.646">Registrar usuario</text></g><!--entity UC_VerUsr--><g class="entity" data-entity="UC_VerUsr" data-source-line="14" data-uid="ent0011" id="entity_UC_VerUsr"><ellipse cx="596.0087" cy="913.0036" fill="#F1F1F1" rx="59.7287" ry="14.5236" style="stroke:#181818;stroke-width:0.5;"/><text fill="#000000" font-family="sans-serif" font-size="14" lengthAdjust="spacing" textLength="80.2266" x="555.8955" y="917.6521">Ver usuario</text></g><!--entity UC_ModUsr--><g class="entity" data-entity="UC_ModUsr" data-source-line="15" data-uid="ent0012" id="entity_UC_ModUsr"><ellipse cx="875.4837" cy="982.0007" fill="#F1F1F1" rx="75.7537" ry="17.5507" style="stroke:#181818;stroke-width:0.5;"/><text fill="#000000" font-family="sans-serif" font-size="14" lengthAdjust="spacing" textLength="120.5518" x="815.2079" y="986.6492">Modificar usuario</text></g><!--entity UC_ElmUsr--><g class="entity" data-entity="UC_ElmUsr" data-source-line="16" data-uid="ent0013" id="entity_UC_ElmUsr"><ellipse cx="875.4776" cy="912.0035" fill="#F1F1F1" rx="72.9176" ry="16.9835" style="stroke:#181818;stroke-width:0.5;"/><text fill="#000000" font-family="sans-serif" font-size="14" lengthAdjust="spacing" textLength="113.6406" x="818.6573" y="916.652">Eliminar usuario</text></g><!--entity UC_ConCns--><g class="entity" data-entity="UC_ConCns" data-source-line="20" data-uid="ent0015" id="entity_UC_ConCns"><ellipse cx="310.0812" cy="728.9962" fill="#F1F1F1" rx="91.1312" ry="20.6262" style="stroke:#181818;stroke-width:0.5;"/><text fill="#000000" font-family="sans-serif" font-size="14" lengthAdjust="spacing" textLength="156.2969" x="231.9327" y="733.6447">Consultar consultorios</text></g><!--entity UC_VerCns--><g class="entity" data-entity="UC_VerCns" data-source-line="21" data-uid="ent0016" id="entity_UC_VerCns"><ellipse cx="596.0124" cy="728.9985" fill="#F1F1F1" rx="69.7924" ry="16.3585" style="stroke:#181818;stroke-width:0.5;"/><text fill="#000000" font-family="sans-serif" font-size="14" lengthAdjust="spacing" textLength="105.8545" x="543.0851" y="733.6469">Ver consultorio</text></g><!--entity UC_CreCns--><g class="entity" data-entity="UC_CreCns" data-source-line="22" data-uid="ent0017" id="entity_UC_CreCns"><ellipse cx="310.0758" cy="801.9972" fill="#F1F1F1" rx="75.6858" ry="17.5372" style="stroke:#181818;stroke-width:0.5;"/><text fill="#000000" font-family="sans-serif" font-size="14" lengthAdjust="spacing" textLength="120.3877" x="249.8819" y="806.6456">Crear consultorio</text></g><!--entity UC_ModCns--><g class="entity" data-entity="UC_ModCns" data-source-line="23" data-uid="ent0018" id="entity_UC_ModCns"><ellipse cx="875.4783" cy="799.9957" fill="#F1F1F1" rx="86.6783" ry="19.7357" style="stroke:#181818;stroke-width:0.5;"/><text fill="#000000" font-family="sans-serif" font-size="14" lengthAdjust="spacing" textLength="146.1797" x="802.3884" y="804.6441">Modificar consultorio</text></g><!--entity UC_ElmCns--><g class="entity" data-entity="UC_ElmCns" data-source-line="24" data-uid="ent0019" id="entity_UC_ElmCns"><ellipse cx="875.4775" cy="725.9955" fill="#F1F1F1" rx="83.6775" ry="19.1355" style="stroke:#181818;stroke-width:0.5;"/><text fill="#000000" font-family="sans-serif" font-size="14" lengthAdjust="spacing" textLength="139.2686" x="805.8432" y="730.6439">Eliminar consultorio</text></g><!--entity UC_ConPacs--><g class="entity" data-entity="UC_ConPacs" data-source-line="28" data-uid="ent0021" id="entity_UC_ConPacs"><ellipse cx="310.079" cy="104.0038" fill="#F1F1F1" rx="83.769" ry="19.1538" style="stroke:#181818;stroke-width:0.5;"/><text fill="#000000" font-family="sans-serif" font-size="14" lengthAdjust="spacing" textLength="139.4805" x="240.3387" y="108.6522">Consultar pacientes</text></g><!--entity UC_RegPac--><g class="entity" data-entity="UC_RegPac" data-source-line="29" data-uid="ent0022" id="entity_UC_RegPac"><ellipse cx="310.0752" cy="175.995" fill="#F1F1F1" rx="79.3252" ry="18.265" style="stroke:#181818;stroke-width:0.5;"/><text fill="#000000" font-family="sans-serif" font-size="14" lengthAdjust="spacing" textLength="129.083" x="245.5337" y="180.6435">Registrar paciente</text></g><!--entity UC_VerPac--><g class="entity" data-entity="UC_VerPac" data-source-line="30" data-uid="ent0023" id="entity_UC_VerPac"><ellipse cx="596.0079" cy="103.9996" fill="#F1F1F1" rx="63.3479" ry="15.0696" style="stroke:#181818;stroke-width:0.5;"/><text fill="#000000" font-family="sans-serif" font-size="14" lengthAdjust="spacing" textLength="89.0381" x="551.4889" y="108.648">Ver paciente</text></g><!--entity UC_ConCitas--><g class="entity" data-entity="UC_ConCitas" data-source-line="34" data-uid="ent0025" id="entity_UC_ConCitas"><ellipse cx="310.0847" cy="351.0009" fill="#F1F1F1" rx="69.2547" ry="16.2509" style="stroke:#181818;stroke-width:0.5;"/><text fill="#000000" font-family="sans-serif" font-size="14" lengthAdjust="spacing" textLength="104.4941" x="257.8376" y="355.6494">Consultar citas</text></g><!--entity UC_VerCita--><g class="entity" data-entity="UC_VerCita" data-source-line="35" data-uid="ent0026" id="entity_UC_VerCita"><ellipse cx="596.0104" cy="343.0036" fill="#F1F1F1" rx="41.2204" ry="14.5236" style="stroke:#181818;stroke-width:0.5;"/><text fill="#000000" font-family="sans-serif" font-size="14" lengthAdjust="spacing" textLength="54.0518" x="568.9845" y="347.6521">Ver cita</text></g><!--entity UC_ResCita--><g class="entity" data-entity="UC_ResCita" data-source-line="36" data-uid="ent0027" id="entity_UC_ResCita"><ellipse cx="310.0821" cy="284.0044" fill="#F1F1F1" rx="64.7221" ry="15.3444" style="stroke:#181818;stroke-width:0.5;"/><text fill="#000000" font-family="sans-serif" font-size="14" lengthAdjust="spacing" textLength="92.7295" x="263.7173" y="288.6529">Reservar cita</text></g><!--entity UC_RepCita--><g class="entity" data-entity="UC_RepCita" data-source-line="37" data-uid="ent0028" id="entity_UC_RepCita"><ellipse cx="875.478" cy="353.0016" fill="#F1F1F1" rx="76.708" ry="17.7416" style="stroke:#181818;stroke-width:0.5;"/><text fill="#000000" font-family="sans-serif" font-size="14" lengthAdjust="spacing" textLength="122.8486" x="814.0537" y="357.65">Reprogramar cita</text></g><!--entity UC_CanCita--><g class="entity" data-entity="UC_CanCita" data-source-line="38" data-uid="ent0029" id="entity_UC_CanCita"><ellipse cx="875.4792" cy="284.9998" fill="#F1F1F1" rx="64.3992" ry="15.2798" style="stroke:#181818;stroke-width:0.5;"/><text fill="#000000" font-family="sans-serif" font-size="14" lengthAdjust="spacing" textLength="91.8682" x="829.5452" y="289.6483">Cancelar cita</text></g><!--entity UC_IniSes--><g class="entity" data-entity="UC_IniSes" data-source-line="42" data-uid="ent0031" id="entity_UC_IniSes"><ellipse cx="310.0811" cy="469.0042" fill="#F1F1F1" rx="64.3711" ry="15.2742" style="stroke:#181818;stroke-width:0.5;"/><text fill="#000000" font-family="sans-serif" font-size="14" lengthAdjust="spacing" textLength="91.793" x="264.1846" y="473.6527">Iniciar sesi&#243;n</text></g><!--entity UC_CerSes--><g class="entity" data-entity="UC_CerSes" data-source-line="43" data-uid="ent0032" id="entity_UC_CerSes"><ellipse cx="596.0146" cy="470.0009" fill="#F1F1F1" rx="64.9046" ry="15.3809" style="stroke:#181818;stroke-width:0.5;"/><text fill="#000000" font-family="sans-serif" font-size="14" lengthAdjust="spacing" textLength="93.2148" x="549.4072" y="474.6494">Cerrar sesi&#243;n</text></g><!--entity UC_AtdCita--><g class="entity" data-entity="UC_AtdCita" data-source-line="47" data-uid="ent0034" id="entity_UC_AtdCita"><ellipse cx="310.075" cy="596.001" fill="#F1F1F1" rx="62.205" ry="14.841" style="stroke:#181818;stroke-width:0.5;"/><text fill="#000000" font-family="sans-serif" font-size="14" lengthAdjust="spacing" textLength="85.9141" x="267.118" y="600.6494">Atender cita</text></g><!--entity UC_RemCita--><g class="entity" data-entity="UC_RemCita" data-source-line="48" data-uid="ent0035" id="entity_UC_RemCita"><ellipse cx="596.0123" cy="597.0036" fill="#F1F1F1" rx="60.3523" ry="14.5236" style="stroke:#181818;stroke-width:0.5;"/><text fill="#000000" font-family="sans-serif" font-size="14" lengthAdjust="spacing" textLength="81.1084" x="555.4581" y="601.6521">Remitir cita</text></g><!--entity Administrador--><g class="entity" data-entity="Administrador" data-source-line="3" data-uid="ent0002" id="entity_Administrador"><ellipse cx="82.41" cy="845.35" fill="#F1F1F1" rx="8" ry="8" style="stroke:#181818;stroke-width:0.5;"/><path d="M82.41,853.35 L82.41,880.35 M69.41,861.35 L95.41,861.35 M82.41,880.35 L69.41,895.35 M82.41,880.35 L95.41,895.35" fill="none" style="stroke:#181818;stroke-width:0.5;"/><text fill="#000000" font-family="sans-serif" font-size="14" lengthAdjust="spacing" textLength="99.0801" x="32.87" y="909.8451">Administrador</text></g><!--entity Usuario--><g class="entity" data-entity="Usuario" data-source-line="4" data-uid="ent0003" id="entity_Usuario"><ellipse cx="82.4121" cy="321.35" fill="#F1F1F1" rx="8" ry="8" style="stroke:#181818;stroke-width:0.5;"/><path d="M82.4121,329.35 L82.4121,356.35 M69.4121,337.35 L95.4121,337.35 M82.4121,356.35 L69.4121,371.35 M82.4121,356.35 L95.4121,371.35" fill="none" style="stroke:#181818;stroke-width:0.5;"/><text fill="#000000" font-family="sans-serif" font-size="14" lengthAdjust="spacing" textLength="53.2041" x="55.81" y="385.8451">Usuario</text></g><!--entity Recepcionista--><g class="entity" data-entity="Recepcionista" data-source-line="5" data-uid="ent0004" id="entity_Recepcionista"><ellipse cx="82.4077" cy="178.35" fill="#F1F1F1" rx="8" ry="8" style="stroke:#181818;stroke-width:0.5;"/><path d="M82.4077,186.35 L82.4077,213.35 M69.4077,194.35 L95.4077,194.35 M82.4077,213.35 L69.4077,228.35 M82.4077,213.35 L95.4077,228.35" fill="none" style="stroke:#181818;stroke-width:0.5;"/><text fill="#000000" font-family="sans-serif" font-size="14" lengthAdjust="spacing" textLength="97.8154" x="33.5" y="242.8451">Recepcionista</text></g><!--entity Medico--><g class="entity" data-entity="Medico" data-source-line="6" data-uid="ent0005" id="entity_Medico"><ellipse cx="82.4157" cy="549.35" fill="#F1F1F1" rx="8" ry="8" style="stroke:#181818;stroke-width:0.5;"/><path d="M82.4157,557.35 L82.4157,584.35 M69.4157,565.35 L95.4157,565.35 M82.4157,584.35 L69.4157,599.35 M82.4157,584.35 L95.4157,599.35" fill="none" style="stroke:#181818;stroke-width:0.5;"/><text fill="#000000" font-family="sans-serif" font-size="14" lengthAdjust="spacing" textLength="49.7314" x="57.55" y="613.8451">Medico</text></g><!--entity Paciente--><g class="entity" data-entity="Paciente" data-source-line="7" data-uid="ent0006" id="entity_Paciente"><ellipse cx="82.4086" cy="432.35" fill="#F1F1F1" rx="8" ry="8" style="stroke:#181818;stroke-width:0.5;"/><path d="M82.4086,440.35 L82.4086,467.35 M69.4086,448.35 L95.4086,448.35 M82.4086,467.35 L69.4086,482.35 M82.4086,467.35 L95.4086,482.35" fill="none" style="stroke:#181818;stroke-width:0.5;"/><text fill="#000000" font-family="sans-serif" font-size="14" lengthAdjust="spacing" textLength="60.1973" x="52.31" y="496.8451">Paciente</text></g><!--reverse link UC_IniSes to UC_CerSes--><g class="link" data-entity-1="UC_IniSes" data-entity-2="UC_CerSes" data-source-line="54" data-uid="lnk36" id="link_UC_IniSes_UC_CerSes"><path d="M380.8,469.2419 C427.4,469.4119 484.35,469.61 531.01,469.77" fill="none" id="UC_IniSes-backto-UC_CerSes" style="stroke:#181818;stroke-width:1;stroke-dasharray:7,7;"/><polygon fill="#181818" points="374.8,469.22,383.7853,473.2528,379.8,469.2382,383.8145,465.2529,374.8,469.22" style="stroke:#181818;stroke-width:1;"/><text fill="#000000" font-family="sans-serif" font-size="13" lengthAdjust="spacing" textLength="63.0068" x="432.21" y="466.0669">&#171;include&#187;</text></g><!--reverse link UC_ConCitas to UC_VerCita--><g class="link" data-entity-1="UC_ConCitas" data-entity-2="UC_VerCita" data-source-line="56" data-uid="lnk37" id="link_UC_ConCitas_UC_VerCita"><path d="M385.0876,348.9114 C439.8776,347.3714 509.07,345.42 554.73,344.13" fill="none" id="UC_ConCitas-backto-UC_VerCita" style="stroke:#181818;stroke-width:1;stroke-dasharray:7,7;"/><polygon fill="#181818" points="379.09,349.08,388.1988,352.8256,384.088,348.9395,387.9741,344.8287,379.09,349.08" style="stroke:#181818;stroke-width:1;"/><text fill="#000000" font-family="sans-serif" font-size="13" lengthAdjust="spacing" textLength="63.0068" x="432.21" y="342.0669">&#171;include&#187;</text></g><!--reverse link UC_VerCita to UC_CanCita--><g class="link" data-entity-1="UC_VerCita" data-entity-2="UC_CanCita" data-source-line="57" data-uid="lnk38" id="link_UC_VerCita_UC_CanCita"><path d="M638.0231,334.4226 C687.1631,324.1526 770.73,306.69 826.12,295.11" fill="none" id="UC_VerCita-backto-UC_CanCita" style="stroke:#181818;stroke-width:1;stroke-dasharray:7,7;"/><polygon fill="#181818" points="632.15,335.65,641.778,337.7242,637.0443,334.6271,640.1414,329.8934,632.15,335.65" style="stroke:#181818;stroke-width:1;"/><text fill="#000000" font-family="sans-serif" font-size="13" lengthAdjust="spacing" textLength="61.1851" x="696.8" y="307.0669">&#171;extend&#187;</text></g><!--reverse link UC_VerCita to UC_RepCita--><g class="link" data-entity-1="UC_VerCita" data-entity-2="UC_RepCita" data-source-line="58" data-uid="lnk39" id="link_UC_VerCita_UC_RepCita"><path d="M643.3461,344.6668 C685.6561,346.1968 747.13,348.41 799.3,350.29" fill="none" id="UC_VerCita-backto-UC_RepCita" style="stroke:#181818;stroke-width:1;stroke-dasharray:7,7;"/><polygon fill="#181818" points="637.35,344.45,646.1996,348.7726,642.3467,344.6307,646.4887,340.7779,637.35,344.45" style="stroke:#181818;stroke-width:1;"/><text fill="#000000" font-family="sans-serif" font-size="13" lengthAdjust="spacing" textLength="61.1851" x="696.8" y="343.0669">&#171;extend&#187;</text></g><!--reverse link UC_ConPacs to UC_VerPac--><g class="link" data-entity-1="UC_ConPacs" data-entity-2="UC_VerPac" data-source-line="60" data-uid="lnk40" id="link_UC_ConPacs_UC_VerPac"><path d="M400.35,104 C444.53,104 491.92,104 532.51,104" fill="none" id="UC_ConPacs-backto-UC_VerPac" style="stroke:#181818;stroke-width:1;stroke-dasharray:7,7;"/><polygon fill="#181818" points="394.35,104,403.35,108,399.35,104,403.35,100,394.35,104" style="stroke:#181818;stroke-width:1;"/><text fill="#000000" font-family="sans-serif" font-size="13" lengthAdjust="spacing" textLength="63.0068" x="432.21" y="100.0669">&#171;include&#187;</text></g><!--reverse link UC_ConCns to UC_VerCns--><g class="link" data-entity-1="UC_ConCns" data-entity-2="UC_VerCns" data-source-line="62" data-uid="lnk41" id="link_UC_ConCns_UC_VerCns"><path d="M407.7,729 C447.95,729 488.56,729 525.93,729" fill="none" id="UC_ConCns-backto-UC_VerCns" style="stroke:#181818;stroke-width:1;stroke-dasharray:7,7;"/><polygon fill="#181818" points="401.7,729,410.7,733,406.7,729,410.7,725,401.7,729" style="stroke:#181818;stroke-width:1;"/><text fill="#000000" font-family="sans-serif" font-size="13" lengthAdjust="spacing" textLength="63.0068" x="432.21" y="725.0669">&#171;include&#187;</text></g><!--reverse link UC_VerCns to UC_ElmCns--><g class="link" data-entity-1="UC_VerCns" data-entity-2="UC_ElmCns" data-source-line="63" data-uid="lnk42" id="link_UC_VerCns_UC_ElmCns"><path d="M671.9497,728.1853 C709.9897,727.7753 751.49,727.33 791.55,726.9" fill="none" id="UC_VerCns-backto-UC_ElmCns" style="stroke:#181818;stroke-width:1;stroke-dasharray:7,7;"/><polygon fill="#181818" points="665.95,728.25,674.9926,732.1528,670.9497,728.1961,674.9064,724.1532,665.95,728.25" style="stroke:#181818;stroke-width:1;"/><text fill="#000000" font-family="sans-serif" font-size="13" lengthAdjust="spacing" textLength="61.1851" x="696.8" y="724.0669">&#171;extend&#187;</text></g><!--reverse link UC_VerCns to UC_ModCns--><g class="link" data-entity-1="UC_VerCns" data-entity-2="UC_ModCns" data-source-line="64" data-uid="lnk43" id="link_UC_VerCns_UC_ModCns"><path d="M650.2027,742.6076 C697.8727,754.8076 765.64,772.15 816.71,785.22" fill="none" id="UC_VerCns-backto-UC_ModCns" style="stroke:#181818;stroke-width:1;stroke-dasharray:7,7;"/><polygon fill="#181818" points="644.39,741.12,652.1172,747.2265,649.2339,742.3597,654.1007,739.4763,644.39,741.12" style="stroke:#181818;stroke-width:1;"/><text fill="#000000" font-family="sans-serif" font-size="13" lengthAdjust="spacing" textLength="61.1851" x="696.8" y="753.0669">&#171;extend&#187;</text></g><!--reverse link UC_ConUsrs to UC_VerUsr--><g class="link" data-entity-1="UC_ConUsrs" data-entity-2="UC_VerUsr" data-source-line="66" data-uid="lnk44" id="link_UC_ConUsrs_UC_VerUsr"><path d="M396.55,913 C442.65,913 493.73,913 535.86,913" fill="none" id="UC_ConUsrs-backto-UC_VerUsr" style="stroke:#181818;stroke-width:1;stroke-dasharray:7,7;"/><polygon fill="#181818" points="390.55,913,399.55,917,395.55,913,399.55,909,390.55,913" style="stroke:#181818;stroke-width:1;"/><text fill="#000000" font-family="sans-serif" font-size="13" lengthAdjust="spacing" textLength="63.0068" x="432.21" y="909.0669">&#171;include&#187;</text></g><!--reverse link UC_VerUsr to UC_ElmUsr--><g class="link" data-entity-1="UC_VerUsr" data-entity-2="UC_ElmUsr" data-source-line="67" data-uid="lnk45" id="link_UC_VerUsr_UC_ElmUsr"><path d="M662.19,912.7675 C704.93,912.6075 756.87,912.42 802.32,912.26" fill="none" id="UC_VerUsr-backto-UC_ElmUsr" style="stroke:#181818;stroke-width:1;stroke-dasharray:7,7;"/><polygon fill="#181818" points="656.19,912.79,665.2049,916.7563,661.19,912.7713,665.175,908.7563,656.19,912.79" style="stroke:#181818;stroke-width:1;"/><text fill="#000000" font-family="sans-serif" font-size="13" lengthAdjust="spacing" textLength="61.1851" x="696.8" y="908.0669">&#171;extend&#187;</text></g><!--reverse link UC_VerUsr to UC_ModUsr--><g class="link" data-entity-1="UC_VerUsr" data-entity-2="UC_ModUsr" data-source-line="68" data-uid="lnk46" id="link_UC_VerUsr_UC_ModUsr"><path d="M644.9728,924.9274 C694.0928,937.1374 769.46,955.88 822.46,969.06" fill="none" id="UC_VerUsr-backto-UC_ModUsr" style="stroke:#181818;stroke-width:1;stroke-dasharray:7,7;"/><polygon fill="#181818" points="639.15,923.48,646.9193,929.533,644.0023,924.6862,648.8491,921.7692,639.15,923.48" style="stroke:#181818;stroke-width:1;"/><text fill="#000000" font-family="sans-serif" font-size="13" lengthAdjust="spacing" textLength="61.1851" x="696.8" y="935.0669">&#171;extend&#187;</text></g><!--reverse link UC_AtdCita to UC_RemCita--><g class="link" data-entity-1="UC_AtdCita" data-entity-2="UC_RemCita" data-source-line="70" data-uid="lnk47" id="link_UC_AtdCita_UC_RemCita"><path d="M378.69,596.2411 C426.97,596.4111 487.73,596.62 535.47,596.79" fill="none" id="UC_AtdCita-backto-UC_RemCita" style="stroke:#181818;stroke-width:1;stroke-dasharray:7,7;"/><polygon fill="#181818" points="372.69,596.22,381.6759,600.2517,377.69,596.2376,381.704,592.2517,372.69,596.22" style="stroke:#181818;stroke-width:1;"/><text fill="#000000" font-family="sans-serif" font-size="13" lengthAdjust="spacing" textLength="61.1851" x="433.21" y="593.0669">&#171;extend&#187;</text></g><!--link Recepcionista to Usuario--><g class="link" data-entity-1="Recepcionista" data-entity-2="Usuario" data-source-line="74" data-uid="lnk48" id="link_Recepcionista_Usuario"><path d="M82.41,246.36 C82.41,268.39 82.41,272.42 82.41,294.46" fill="none" id="Recepcionista-to-Usuario" style="stroke:#181818;stroke-width:1;"/><polygon fill="none" points="82.41,312.46,88.41,294.46,76.41,294.46,82.41,312.46" style="stroke:#181818;stroke-width:1;"/></g><!--reverse link Usuario to Medico--><g class="link" data-entity-1="Usuario" data-entity-2="Medico" data-source-line="75" data-uid="lnk50" id="link_Usuario_Medico"><path d="M42.1753,384.5692 C27.9953,397.6192 25.3,403.43 17.87,423.5 C6,455.6 6.33,468.28 17.87,500.5 C25.73,522.42 42.64,542.61 57.18,557.02" fill="none" id="Usuario-backto-Medico" style="stroke:#181818;stroke-width:1;"/><polygon fill="none" points="55.42,372.38,38.1122,380.1543,46.2384,388.9841,55.42,372.38" style="stroke:#181818;stroke-width:1;"/></g><!--reverse link Usuario to Paciente--><g class="link" data-entity-1="Usuario" data-entity-2="Paciente" data-source-line="76" data-uid="lnk52" id="link_Usuario_Paciente"><path d="M82.41,407.47 C82.41,418.78 82.41,412.1 82.41,423.41" fill="none" id="Usuario-backto-Paciente" style="stroke:#181818;stroke-width:1;"/><polygon fill="none" points="82.41,389.47,76.41,407.47,88.41,407.47,82.41,389.47" style="stroke:#181818;stroke-width:1;"/></g><!--link Administrador to UC_ConUsrs--><g class="link" data-entity-1="Administrador" data-entity-2="UC_ConUsrs" data-source-line="80" data-uid="lnk53" id="link_Administrador_UC_ConUsrs"><path d="M132.38,883.25 C165.18,888.77 208.71,896.1 244.36,902.1" fill="none" id="Administrador-UC_ConUsrs" style="stroke:#181818;stroke-width:1;"/></g><!--link Administrador to UC_RegUsr--><g class="link" data-entity-1="Administrador" data-entity-2="UC_RegUsr" data-source-line="81" data-uid="lnk54" id="link_Administrador_UC_RegUsr"><path d="M121.17,913.42 C135.68,926.35 153.08,939.81 170.95,949 C194.16,960.94 221.7,968.98 246.06,974.31" fill="none" id="Administrador-UC_RegUsr" style="stroke:#181818;stroke-width:1;"/></g><!--link Administrador to UC_ConCns--><g class="link" data-entity-1="Administrador" data-entity-2="UC_ConCns" data-source-line="83" data-uid="lnk55" id="link_Administrador_UC_ConCns"><path d="M105.84,836.59 C121.34,813.25 143.98,784.63 170.95,767 C189.79,754.68 212.57,746.32 234.16,740.67" fill="none" id="Administrador-UC_ConCns" style="stroke:#181818;stroke-width:1;"/></g><!--link Administrador to UC_CreCns--><g class="link" data-entity-1="Administrador" data-entity-2="UC_CreCns" data-source-line="84" data-uid="lnk56" id="link_Administrador_UC_CreCns"><path d="M132.38,859.16 C171.79,846.41 226.69,828.65 264.8,816.32" fill="none" id="Administrador-UC_CreCns" style="stroke:#181818;stroke-width:1;"/></g><!--link Usuario to UC_IniSes--><g class="link" data-entity-1="Usuario" data-entity-2="UC_IniSes" data-source-line="86" data-uid="lnk57" id="link_Usuario_UC_IniSes"><path d="M109.3,364.54 C152.37,387.06 238.32,432 282.1,454.89" fill="none" id="Usuario-UC_IniSes" style="stroke:#181818;stroke-width:1;"/></g><!--link Usuario to UC_ConCitas--><g class="link" data-entity-1="Usuario" data-entity-2="UC_ConCitas" data-source-line="87" data-uid="lnk58" id="link_Usuario_UC_ConCitas"><path d="M109.3,351 C141.14,351 196.41,351 240.76,351" fill="none" id="Usuario-UC_ConCitas" style="stroke:#181818;stroke-width:1;"/></g><!--link Recepcionista to UC_ResCita--><g class="link" data-entity-1="Recepcionista" data-entity-2="UC_ResCita" data-source-line="89" data-uid="lnk59" id="link_Recepcionista_UC_ResCita"><path d="M131.55,224.21 C173.36,238.29 233.07,258.4 271.46,271.33" fill="none" id="Recepcionista-UC_ResCita" style="stroke:#181818;stroke-width:1;"/></g><!--link Recepcionista to UC_ConPacs--><g class="link" data-entity-1="Recepcionista" data-entity-2="UC_ConPacs" data-source-line="90" data-uid="lnk60" id="link_Recepcionista_UC_ConPacs"><path d="M125.61,169.67 C139.3,158.81 155.07,147.82 170.95,140 C193.18,129.05 219.12,121.16 242.48,115.61" fill="none" id="Recepcionista-UC_ConPacs" style="stroke:#181818;stroke-width:1;"/></g><!--link Recepcionista to UC_RegPac--><g class="link" data-entity-1="Recepcionista" data-entity-2="UC_RegPac" data-source-line="91" data-uid="lnk61" id="link_Recepcionista_UC_RegPac"><path d="M131.55,201.17 C163.65,196.62 206.31,190.57 241.76,185.55" fill="none" id="Recepcionista-UC_RegPac" style="stroke:#181818;stroke-width:1;"/></g><!--link Medico to UC_AtdCita--><g class="link" data-entity-1="Medico" data-entity-2="UC_AtdCita" data-source-line="93" data-uid="lnk62" id="link_Medico_UC_AtdCita"><path d="M107.56,580.82 C141.33,583.36 203.73,588.06 250.19,591.56" fill="none" id="Medico-UC_AtdCita" style="stroke:#181818;stroke-width:1;"/></g><!--link Paciente to UC_ResCita--><g class="link" data-entity-1="Paciente" data-entity-2="UC_ResCita" data-source-line="95" data-uid="lnk63" id="link_Paciente_UC_ResCita"><path d="M112.95,431.95 C119.7,424.2 126.49,415.6 131.95,407 C155.33,370.2 137.56,345.02 170.95,317 C191.82,299.49 220.41,290.94 246.17,286.89" fill="none" id="Paciente-UC_ResCita" style="stroke:#181818;stroke-width:1;"/></g><!--SRC=[XLR1RjmW4Btp5MWlFJczLwkL8YkgSeWK9TfUAuGdBYg65R1LfRPVrK_eZtKmnc0M76krcu7tcE7DU2OItXnrcXenVdDq40Qu4reHmhZJXjuFar32EiC6RPQrixqo8_HYlG272qSAejYozWI3u17mpBW0vO0GVpPJemHwU4KqJ8mEG4UmtgF_aml7B9qyczd3BqBncRykZ7zd8_8-9_0rX15n_hbQG2BGS_-rr-fiZQKK3poWOQ_ICPD8DSuBZCYXWOF6VE-LKwLy0PCeQEo2d_IGm6Y8DxpdFkL1Jedo80LcesJy8Ks9UBYttfMfLvQMCcs8ZNiddhztngWIUWEP8mFiVGegb2X9hlTeA5cYhPBTi7PaYnNRrWmHDwLrMLcDsaBIJMr5KalanF4YRz5xYVSlqi7pSB7tHZFxyoj7RojWFg6LUjoaAsbEFwuqxcstQ5m0yuFjKYubvMBqQDYqn-gPsh9mWOFSK4h57jLemEgFbaan-6OagGsDgPxvHoLU8POM6bpWyHQi-FTNrOC2amXec19VHdJlG76_dR9OZUJU3U6s_c1F6lQJC2Kq6iA9GXRyVC1MBfdlv1WnCdLeiffskKLo6OvtT-cMduv7eRYy3d0w4P9Nrm9R2cU3o-ifdXOIYJ3uwIzMHor5agD8_cucdsXNGrFP3K8xgqMMeq9dgGIMWqBNgiGLnb5oY7R5OUZsoM505Gute31LIeThWQnwJJTwRJ8UXdKNVWdPZ7LqrfdkzyaNIvp-OSRJzUba0OXTj0ce-_UrPcEnaSt_7xJhij5UtGiZlCd3pDItvkc4meNGbjLGvyLYhEfIekX_RdVLlQKs6pm_7aXKDImkEIH9oesJ_m00]--></g></svg>